<?xml version="1.0" encoding="UTF-8" standalone="no"?>
<!-- Created with Inkscape (http://www.inkscape.org/) -->

<svg
   width="27.067478mm"
   height="26.308998mm"
   viewBox="0 0 27.067478 26.308998"
   version="1.1"
   id="svg5"
   xml:space="preserve"
   sodipodi:docname="bin_logo_inkscape.svg"
   inkscape:version="1.2.1 (9c6d41e410, 2022-07-14)"
   xmlns:inkscape="http://www.inkscape.org/namespaces/inkscape"
   xmlns:sodipodi="http://sodipodi.sourceforge.net/DTD/sodipodi-0.dtd"
   xmlns="http://www.w3.org/2000/svg"
   xmlns:svg="http://www.w3.org/2000/svg"><sodipodi:namedview
     id="namedview7"
     pagecolor="#c4e4e4"
     bordercolor="#000000"
     borderopacity="0.25"
     inkscape:showpageshadow="2"
     inkscape:pageopacity="0"
     inkscape:pagecheckerboard="0"
     inkscape:deskcolor="#d1d1d1"
     inkscape:document-units="mm"
     showgrid="false"
     inkscape:zoom="2.3733958"
     inkscape:cx="26.754913"
     inkscape:cy="73.523345"
     inkscape:window-width="1440"
     inkscape:window-height="878"
     inkscape:window-x="-6"
     inkscape:window-y="-6"
     inkscape:window-maximized="1"
     inkscape:current-layer="layer1" /><defs
     id="defs2" /><g
     inkscape:label="Layer 1"
     inkscape:groupmode="layer"
     id="layer1"
     transform="translate(-35.372624,-86.497556)"><path
       style="fill:#000000;stroke-width:0.5;fill-opacity:1;stroke:#000000;stroke-opacity:1;stroke-dasharray:none"
       d="m 41.353112,112.77313 c -1.509116,-0.22225 -2.892438,-1.38161 -3.395955,-2.84613 -0.217631,-0.633 -0.201063,0.11827 -0.213855,-9.69704 l -0.0117,-8.978769 0.08242,-0.164362 c 0.233802,-0.466303 0.695311,-0.50552 0.914428,-0.0777 l 0.07785,0.151994 -0.01481,7.395304 c -0.01815,9.062403 -0.0036,10.505743 0.10984,10.878983 0.350595,1.15379 1.249,2.00245 2.40198,2.269 0.411299,0.0951 10.411678,0.0948 10.825371,-3.3e-4 1.126316,-0.25895 1.982015,-1.03861 2.38495,-2.17303 l 0.10148,-0.28573 0.01837,-9.08145 0.01837,-9.081449 0.111689,-0.13745 c 0.197347,-0.242859 0.496557,-0.282348 0.772886,-0.102003 0.169438,0.110584 0.164155,-0.20958 0.153904,9.326662 l -0.0097,9.07569 -0.103829,0.38426 c -0.417983,1.54691 -1.617985,2.7038 -3.216476,3.10093 -0.27512,0.0684 -10.561977,0.10818 -11.007149,0.0426 z m 0.901565,-3.05951 c -0.06929,-0.0362 -0.160219,-0.11224 -0.20207,-0.16906 l -0.07609,-0.10332 -0.0095,-8.52727 c 0.01412,-4.005117 -0.0083,-5.355195 0.06179,-5.51278 0.179083,-0.403252 0.730195,-0.412353 0.930438,-0.01537 0.06061,0.120155 -0.01786,0.325699 0.06429,5.46455 l 7.3e-5,8.51221 -0.08266,0.12098 c -0.175923,0.25747 -0.454676,0.35091 -0.686265,0.23006 z m 4.197151,-0.0137 c -0.06445,-0.0411 -0.151257,-0.14486 -0.192886,-0.23051 l -0.07569,-0.15573 8.08e-4,-8.46947 c 7.9e-4,-8.272623 0.0024,-8.473062 0.07134,-8.62424 0.181015,-0.397191 0.730505,-0.402619 0.928959,-0.0092 0.08925,0.176952 0.101119,17.11388 0.01214,17.326 -0.09801,0.23365 -0.497119,0.32107 -0.744673,0.16312 z m 4.224897,0.004 c -0.275259,-0.16718 -0.416083,0.72523 -0.259484,-8.79526 0.07644,-4.647142 -0.0083,-5.350346 0.06179,-5.50793 0.179087,-0.403261 0.729925,-0.412357 0.930564,-0.01537 0.107671,0.21304 0.08062,13.99512 -0.02762,14.14259 -0.162325,0.22114 -0.494433,0.30401 -0.70525,0.17597 z M 35.693962,89.886297 c -0.419893,-0.148329 -0.430883,-0.735493 -0.01764,-0.942298 0.118677,-0.05939 0.348591,-0.06399 3.201833,-0.06404 l 3.073974,-5.7e-5 0.01409,-0.832549 c 0.01746,-1.030932 0.09182,-1.223382 0.562606,-1.455886 0.203591,-0.100547 7.934162,-0.132843 8.273565,-0.03456 0.545698,0.158015 0.670595,0.43882 0.671067,1.508748 l 3.6e-4,0.814251 h 3.10636 c 3.426504,0 3.200809,-0.01501 3.460235,0.230181 0.251841,0.238024 0.208386,0.557517 -0.100344,0.737731 l -0.12859,0.07506 -10.985284,0.0077 c -9.404948,0.0066 -11.006424,1.83e-4 -11.132243,-0.04425 z M 50.408364,88.22118 v -0.65872 h -3.692378 -3.692378 v 0.65872 0.65872 h 3.692378 3.692378 z"
       id="path183"
       sodipodi:nodetypes="ssscsscscscscccssccscsscscccsccscccscssssccsscsssscsscsssscssscsccccccccccc"
       inkscape:export-filename="bin_logo_inkscape.png"
       inkscape:export-xdpi="120"
       inkscape:export-ydpi="120" /></g></svg>
