<?xml version="1.0" encoding="UTF-8" standalone="no"?>
<!-- Created with Inkscape (http://www.inkscape.org/) -->

<svg
   width="55.000004mm"
   height="55.000008mm"
   viewBox="0 0 55.000004 55.000008"
   version="1.1"
   id="svg5"
   xml:space="preserve"
   xmlns:inkscape="http://www.inkscape.org/namespaces/inkscape"
   xmlns:sodipodi="http://sodipodi.sourceforge.net/DTD/sodipodi-0.dtd"
   xmlns="http://www.w3.org/2000/svg"
   xmlns:svg="http://www.w3.org/2000/svg"><sodipodi:namedview
     id="namedview7"
     pagecolor="#ffffff"
     bordercolor="#000000"
     borderopacity="0.25"
     inkscape:showpageshadow="2"
     inkscape:pageopacity="0.0"
     inkscape:pagecheckerboard="0"
     inkscape:deskcolor="#d1d1d1"
     inkscape:document-units="mm"
     showgrid="false" /><defs
     id="defs2" /><g
     inkscape:label="Layer 1"
     inkscape:groupmode="layer"
     id="layer1"
     transform="translate(-55.133001,-76.508001)"><path
       style="fill:#ffffff;stroke:none;stroke-width:0.2454"
       d="m 75.066042,109.90254 h 21.842685 c 1.923071,0 6.442673,0.94552 8.001543,-0.42693 1.89158,-1.66528 2.20979,-8.25959 2.77495,-10.835592 0.5456,-2.486238 3.81741,-11.610757 1.79478,-13.376039 -2.0431,-1.783141 -8.20136,-0.505656 -10.731895,-0.505656 H 69.088045 C 68.519929,79.458678 65.527734,76.987863 61.040743,76.654599 59.441007,76.53578 55.133,75.88835 55.133,78.734188 c 0,3.91998 8.05605,0.736309 9.780243,3.933621 5.076883,9.414548 2.187947,27.156941 9.697207,34.790301 4.616514,4.6928 18.016879,1.87351 23.907735,1.87351 1.44208,0 8.206175,0.82478 6.352775,-2.84104 -1.07443,-2.12495 -6.326792,-1.08775 -8.192162,-1.08775 -7.107378,0 -18.59662,3.17158 -21.612756,-5.50029 M 106.33556,88.949022 c -0.96682,3.439619 -1.47127,14.765938 -4.00456,16.791878 -1.16548,0.93218 -4.477522,0.23285 -5.882122,0.23285 H 80.584195 c -1.414028,0 -5.165476,0.76375 -6.294143,-0.23285 -2.083883,-1.83997 -3.862545,-13.988823 -4.052392,-17.053794 h 24.601761 c 3.458038,0 8.216069,-0.954876 11.496139,0.261916 M 78.744808,121.80649 c -5.351869,0.92666 -4.528308,10.39817 0.919698,9.66062 5.631964,-0.76219 4.59708,-10.61584 -0.919698,-9.66062 m 18.853688,0 c -5.773367,1.00236 -4.133095,10.80468 1.609458,9.54799 5.179476,-1.13359 3.504486,-10.43564 -1.609458,-9.54799 z"
       id="path179"
       inkscape:export-filename="cart_logo_inkscape.svg"
       inkscape:export-xdpi="96"
       inkscape:export-ydpi="96" /></g></svg>
