<?xml version="1.0" encoding="UTF-8" standalone="no"?>
<!-- Created with Inkscape (http://www.inkscape.org/) -->

<svg
   width="19.130875mm"
   height="19.138287mm"
   viewBox="0 0 19.130875 19.138287"
   version="1.1"
   id="svg40193"
   xml:space="preserve"
   sodipodi:docname="sign-in_icon.svg"
   inkscape:version="1.2.1 (9c6d41e410, 2022-07-14)"
   xmlns:inkscape="http://www.inkscape.org/namespaces/inkscape"
   xmlns:sodipodi="http://sodipodi.sourceforge.net/DTD/sodipodi-0.dtd"
   xmlns="http://www.w3.org/2000/svg"
   xmlns:svg="http://www.w3.org/2000/svg"><sodipodi:namedview
     id="namedview40195"
     pagecolor="#ffffff"
     bordercolor="#000000"
     borderopacity="0.25"
     inkscape:showpageshadow="2"
     inkscape:pageopacity="0.0"
     inkscape:pagecheckerboard="0"
     inkscape:deskcolor="#d1d1d1"
     inkscape:document-units="mm"
     showgrid="false"
     inkscape:zoom="4.7572176"
     inkscape:cx="55.599727"
     inkscape:cy="57.701796"
     inkscape:window-width="1440"
     inkscape:window-height="878"
     inkscape:window-x="-6"
     inkscape:window-y="-6"
     inkscape:window-maximized="1"
     inkscape:current-layer="layer1" /><defs
     id="defs40190" /><g
     inkscape:label="Layer 1"
     inkscape:groupmode="layer"
     id="layer1"
     transform="translate(-0.46803741,-0.47610424)"><path
       style="fill:#000000;fill-opacity:1;stroke-width:0.023949"
       d="M 9.5192112,19.608828 C 9.4665218,19.603633 9.2886886,19.587802 9.12405,19.573676 8.0467008,19.480666 6.8151298,19.127931 5.8096089,18.624363 3.9343059,17.685206 2.3921217,16.143022 1.452965,14.267719 0.95303325,13.269461 0.61987479,12.112704 0.49837235,10.953278 0.45782866,10.566429 0.45795235,9.5182565 0.49858509,9.1331532 0.70721564,7.1558131 1.4669289,5.3792225 2.7614997,3.8413993 2.9824245,3.5789562 3.5698555,2.9915303 3.8322986,2.7706005 5.1950344,1.6234217 6.7761594,0.88301069 8.471388,0.59820534 9.0372608,0.50314164 9.3832229,0.47610425 10.034114,0.47610425 c 1.116356,0 1.940156,0.13241635 3.005595,0.48316023 0.79553,0.26187662 1.488021,0.60170652 2.239232,1.09887032 1.429004,0.9457367 2.571646,2.233683 3.336321,3.7605774 0.49869,0.9957819 0.830491,2.1470967 0.955196,3.314441 0.03794,0.3553003 0.03794,1.4648238 0,1.8201248 -0.143696,1.345009 -0.553778,2.637309 -1.196984,3.771966 -0.169027,0.298161 -0.578736,0.906883 -0.805978,1.197449 -0.870297,1.112822 -2.034733,2.063573 -3.308881,2.70167 -0.987373,0.494482 -2.138901,0.828455 -3.278518,0.950857 -0.245266,0.02634 -1.2886702,0.05036 -1.4608858,0.03362 z m -5.248113,-3.326669 c 0.048583,-0.908795 0.3360698,-1.818242 0.8242269,-2.607407 0.430906,-0.696612 1.071296,-1.354196 1.7562,-1.803359 0.4413301,-0.289425 1.0853763,-0.591722 1.5181326,-0.712569 0.079035,-0.02201 0.1586869,-0.04524 0.1769921,-0.05153 0.018306,-0.0061 -0.067976,-0.06234 -0.1917848,-0.124624 C 7.7978432,10.702471 7.3474346,10.311011 6.9540568,9.7651971 6.7712762,9.5115949 6.5182232,9.0138028 6.4196914,8.7140442 5.8416086,6.9553433 6.6335909,5.0316772 8.2877564,4.1766826 8.6134097,4.0083484 9.0310172,3.864464 9.3755173,3.8018649 c 0.3632508,-0.065998 1.0160957,-0.060729 1.3650937,0.011132 1.082727,0.2226564 1.965842,0.8334439 2.532946,1.7518316 0.89966,1.4569385 0.69891,3.4083296 -0.477963,4.6460575 -0.342764,0.360485 -0.763846,0.659189 -1.133964,0.8044 -0.09179,0.03602 -0.16257,0.06985 -0.157227,0.0752 0.0054,0.0054 0.137412,0.05298 0.293522,0.105898 0.809088,0.274248 1.624642,0.783629 2.264727,1.414511 1.02118,1.006494 1.615136,2.248572 1.724013,3.605234 0.01607,0.200863 0.03557,0.365222 0.04324,0.365222 0.03036,0 0.549114,-0.506063 0.773326,-0.754391 0.530449,-0.587511 0.964398,-1.233697 1.334895,-1.987767 0.433748,-0.882806 0.676441,-1.679358 0.817238,-2.682289 0.04557,-0.324535 0.05398,-0.491313 0.05492,-1.089678 7.07e-4,-0.442049 -0.01064,-0.8006196 -0.03003,-0.9579583 C 18.640733,7.9829318 18.373762,7.0722571 17.909698,6.1395912 17.471997,5.2599142 16.94056,4.5203739 16.248856,3.8283878 14.093379,1.6720346 11.007827,0.79263703 8.0243659,1.4843684 6.8676115,1.7525679 5.7135904,2.2908961 4.7653157,3.0046483 2.7198429,4.5442474 1.4746641,6.8169307 1.2666371,9.3903769 c -0.034755,0.4300105 -0.015337,1.3142561 0.037403,1.7066561 0.2235468,1.661652 0.8119697,3.047304 1.859887,4.379749 0.199379,0.253506 1.0216293,1.104569 1.0671823,1.104569 0.013853,0 0.030723,-0.126207 0.03995,-0.299127 z"
       id="path40572"
       inkscape:export-filename="sign-in_icon.svg"
       inkscape:export-xdpi="38.886074"
       inkscape:export-ydpi="38.886074" /></g></svg>
