<?xml version="1.0" encoding="UTF-8" standalone="no"?>
<!-- Created with Inkscape (http://www.inkscape.org/) -->

<svg
   version="1.1"
   id="svg2"
   width="1350"
   height="1557"
   viewBox="0 0 1350 1557"
   sodipodi:docname="Scout_Logo.svg"
   inkscape:version="1.2.1 (9c6d41e410, 2022-07-14)"
   inkscape:export-filename="Scout_Logo.png"
   inkscape:export-xdpi="42.666668"
   inkscape:export-ydpi="42.666668"
   xmlns:inkscape="http://www.inkscape.org/namespaces/inkscape"
   xmlns:sodipodi="http://sodipodi.sourceforge.net/DTD/sodipodi-0.dtd"
   xmlns:xlink="http://www.w3.org/1999/xlink"
   xmlns="http://www.w3.org/2000/svg"
   xmlns:svg="http://www.w3.org/2000/svg">
  <defs
     id="defs6">
    <linearGradient
       inkscape:collect="always"
       id="linearGradient34955">
      <stop
         style="stop-color:#e2b5b5;stop-opacity:1;"
         offset="0"
         id="stop34953" />
      <stop
         style="stop-color:#ffffff;stop-opacity:1;"
         offset="0.74492753"
         id="stop34951" />
    </linearGradient>
    <linearGradient
       inkscape:collect="always"
       id="linearGradient5010">
      <stop
         style="stop-color:#ffed7a;stop-opacity:1;"
         offset="0"
         id="stop5006" />
      <stop
         style="stop-color:#ff6600;stop-opacity:1;"
         offset="1"
         id="stop5008" />
    </linearGradient>
    <linearGradient
       inkscape:collect="always"
       xlink:href="#linearGradient5010"
       id="linearGradient5012"
       x1="422.53934"
       y1="403.97998"
       x2="1446.8073"
       y2="561.27899"
       gradientUnits="userSpaceOnUse" />
    <radialGradient
       inkscape:collect="always"
       xlink:href="#linearGradient34955"
       id="radialGradient34957"
       cx="701.85633"
       cy="-697.65139"
       fx="701.85633"
       fy="-697.65139"
       r="585.88635"
       gradientTransform="translate(0,-3.8609225e-5)"
       gradientUnits="userSpaceOnUse" />
  </defs>
  <sodipodi:namedview
     id="namedview4"
     pagecolor="#ffffff"
     bordercolor="#000000"
     borderopacity="0.25"
     inkscape:showpageshadow="2"
     inkscape:pageopacity="0.0"
     inkscape:pagecheckerboard="0"
     inkscape:deskcolor="#d1d1d1"
     showgrid="false"
     inkscape:zoom="0.34104046"
     inkscape:cx="652.41525"
     inkscape:cy="1004.2797"
     inkscape:window-width="1440"
     inkscape:window-height="878"
     inkscape:window-x="-6"
     inkscape:window-y="-6"
     inkscape:window-maximized="1"
     inkscape:current-layer="g8" />
  <g
     inkscape:groupmode="layer"
     inkscape:label="Image"
     id="g8">
    <path
       style="opacity:1;fill:url(#radialGradient34957);fill-opacity:1;stroke:#000000;stroke-width:12;stroke-dasharray:none;stroke-opacity:1;paint-order:stroke markers fill"
       id="path3143"
       sodipodi:type="arc"
       sodipodi:cx="701.85645"
       sodipodi:cy="-697.65118"
       sodipodi:rx="579.88623"
       sodipodi:ry="579.88605"
       sodipodi:start="0"
       sodipodi:end="6.2287325"
       sodipodi:open="true"
       sodipodi:arc-type="chord"
       d="M 1281.7427,-697.65118 A 579.88623,579.88605 0 0 1 709.75031,-117.81887 579.88623,579.88605 0 0 1 122.18513,-681.86492 579.88623,579.88605 0 0 1 678.1807,-1277.0537 579.88623,579.88605 0 0 1 1280.8832,-729.212 Z"
       transform="rotate(92.220652)" />
    <g
       id="g329"
       transform="translate(71.771117,127.26914)">
      <g
         id="g332">
        <g
           id="g335">
          <path
             style="fill:#a30000;fill-opacity:1;stroke:#000000;stroke-width:2;stroke-dasharray:none;stroke-opacity:1"
             d="M 814.17206,1375.9846 C 811.32743,1371.5155 809,1367.5011 809,1367.0639 c 0,-1.6298 22.66685,-22.6833 25.83399,-23.9951 2.96594,-1.2286 3.55433,-1.1694 5.91791,0.5953 4.75583,3.5507 6.73137,6.9798 5.53449,9.6067 -0.88578,1.9441 -16.88141,20.4088 -24.71883,28.5344 l -2.22345,2.3052 z M 337.34004,1366.75 c -7.28699,-7.4635 -21.46878,-24.884 -21.10057,-25.9194 0.14329,-0.4029 2.96053,-2.7859 6.26053,-5.2955 l 6,-4.5629 11.75545,12.1115 c 6.4655,6.6614 12.01462,13.1442 12.33138,14.4062 0.32518,1.2957 -0.17709,3.7565 -1.15367,5.6524 -2.07548,4.0292 -6.40988,9.8577 -7.33074,9.8577 -0.36311,0 -3.40618,-2.8125 -6.76238,-6.25 z m 463.51741,-12.5 c 4.10971,-5.6689 20.15067,-20.25 22.27741,-20.25 1.95668,0 0.52398,2.0942 -5.80647,8.4872 -11.08554,11.1952 -21.3991,18.5606 -16.47094,11.7628 z m -447.40329,-15.396 c -9.87946,-9.5555 -14.09865,-14.5428 -13.1259,-15.5156 0.65198,-0.652 19.02321,16.947 21.88931,20.9692 4.13138,5.7978 0.59233,3.5954 -8.76341,-5.4536 z m 427.18236,-2.6544 c -8.03461,-8.0642 -9.59511,-9.9681 -9.62121,-11.7383 -0.0228,-1.55 9.52877,-7.021 17.48469,-10.0151 7.9685,-2.9988 12.34174,-2.8604 20.49809,0.6483 6.6831,2.875 7.80872,4.3487 5.38992,7.0568 -2.46143,2.7558 -24.66539,21.8487 -25.4088,21.8487 -0.31404,0 -4.06825,-3.5102 -8.34269,-7.8004 z m -417.50443,-11.2419 c -6.64569,-6.0487 -12.53035,-11.8333 -13.07702,-12.8548 -0.86755,-1.621 -0.222,-2.2036 5.07628,-4.5814 5.27296,-2.3663 7.07488,-2.6759 13.71944,-2.3572 8.97469,0.4306 14.44795,2.7695 20.99812,8.9734 l 4.34891,4.1191 -7.84891,7.9409 c -4.3169,4.3676 -8.588,8.3497 -9.49133,8.8493 -1.29186,0.7144 -4.22136,-1.4391 -13.72549,-10.0893 z m 168.1912,-13.2077 c 8.99284,-10.5434 12.92225,-21.6965 10.95322,-31.0895 -0.59499,-2.8383 -0.75339,-5.5102 -0.35201,-5.9376 1.47372,-1.5694 52.0755,13.2424 52.0755,15.2431 0,2.5284 -22.77278,17.0501 -33.70238,21.4912 -7.61772,3.0954 -19.68661,5.5428 -27.33278,5.5428 h -6.11949 z m 141.90564,3.2361 c -10.03675,-1.8018 -28.26923,-7.0151 -31.2007,-8.9212 -1.17017,-0.7609 1.39134,-3.8537 12.5,-15.0926 7.68448,-7.7745 15.30357,-14.8341 16.93132,-15.6879 2.59181,-1.3596 4.16058,-1.3935 12.62568,-0.2731 5.35883,0.7092 11.96065,0.975 14.81531,0.5963 5.03308,-0.6677 5.18805,-0.6114 6.87431,2.4977 1.37071,2.5272 13.09455,19.0666 17.3897,24.5325 2.13992,2.7232 -16.00868,10.261 -31.04554,12.8944 -4.60954,0.8073 -8.43454,1.4296 -8.5,1.3828 -0.0655,-0.047 -4.74099,-0.9147 -10.39008,-1.9289 z m -188.80053,-6.8228 c -9.36865,-3.2614 -23.45322,-10.5451 -30.78364,-15.9194 l -5.10667,-3.7439 8.48095,-0.6531 c 13.16922,-1.014 21.80717,-3.5612 31.27637,-9.223 4.70292,-2.8119 5.02117,-2.8584 16.5,-2.4101 7.82027,0.3054 12.99232,1.0106 15.58488,2.1251 3.691,1.5866 3.8518,1.8435 3.29621,5.2672 -0.84712,5.2202 -5.84974,15.3827 -9.77056,19.8482 -7.01613,7.991 -15.95027,9.4182 -29.47754,4.709 z M 757.5,1308.0226 c -1.1,-0.4679 -8.7351,-7.7074 -16.96689,-16.0878 -8.23179,-8.3804 -17.34429,-16.7579 -20.25,-18.6167 -2.90571,-1.8588 -5.28311,-4.0232 -5.28311,-4.8099 0,-2.1285 3.76385,-5.3002 10.5,-8.8481 5.68017,-2.9916 6.58636,-3.1601 17,-3.1601 10.85826,0 11.10953,0.053 19.5,4.1378 4.675,2.2758 11.17523,6.3258 14.44496,9 5.60926,4.5876 22.45053,22.9919 22.52197,24.6122 0.0182,0.4125 -1.87943,0.7578 -4.21693,0.7674 -10.59606,0.043 -22.97205,4.3683 -31.1375,10.8817 -2.13813,1.7055 -3.93813,3.0724 -4,3.0375 -0.0619,-0.035 -1.0125,-0.4462 -2.1125,-0.914 z m -356.80549,-9.5174 c -12.89106,-9.7235 -15.19283,-10.7094 -24.76482,-10.6069 -4.45299,0.048 -8.57838,0.3846 -9.16753,0.7487 -3.62746,2.2419 11.00166,-15.3749 17.9837,-21.6565 7.97726,-7.177 17.09594,-13.2652 18.85629,-12.5897 0.80902,0.3105 2.15227,1.8098 2.98501,3.3318 7.20304,13.1655 11.6834,20.1533 16.16284,25.2086 2.8875,3.2586 5.25,6.1082 5.25,6.3323 0,0.3434 -11.88566,10.4034 -17.10132,14.4745 -1.35216,1.0555 -2.92676,0.2465 -10.20417,-5.2428 z m 220.46954,-6.6324 c -1.28478,-0.4796 -5.55978,-3.1004 -9.5,-5.8241 -9.60364,-6.6385 -22.55191,-12.5575 -43.91405,-20.0742 -9.7625,-3.4352 -17.75,-6.6205 -17.75,-7.0786 0,-0.9587 6.03212,-5.482 21.17673,-15.88 l 10.67672,-7.3305 9.82328,2.7741 c 16.95224,4.7874 27.48135,8.5816 38.03356,13.7056 10.33852,5.0202 19.615,12.1468 20.57129,15.8037 0.69065,2.641 -3.55427,8.4233 -10.40107,14.168 -10.62134,8.9116 -14.926,11.1508 -18.71646,9.736 z M 436.5,1269.3546 c -9.83533,-2.7 -21.5,-32.7113 -21.5,-55.3162 0,-5.9453 3.24539,-27.6171 4.29251,-28.6642 0.22247,-0.2225 2.00727,2.1922 3.96623,5.3659 4.54369,7.3614 15.33744,17.7514 21.08017,20.2917 4.88499,2.1608 6.1604,4.3882 9.17545,16.0236 2.5523,9.8497 6.62657,17.7813 13.32712,25.9446 6.85485,8.3513 7.60484,11.1799 3.40852,12.8553 -6.72168,2.6836 -28.49681,4.9413 -33.75,3.4993 z M 671.32683,1257.75 c -2.25332,-1.2375 -6.96117,-4.1528 -10.46189,-6.4785 -3.50072,-2.3257 -12.32744,-7.0333 -19.61494,-10.4615 -7.2875,-3.4281 -13.25,-6.4974 -13.25,-6.8206 0,-1.0908 24.44551,-8.9498 31,-9.9663 9.49222,-1.472 29.47137,-1.2449 39.11901,0.4447 10.52609,1.8434 19.93964,5.0544 31.10088,10.6087 l 8.71988,4.3393 -10.39657,4.1799 c -5.71812,2.2989 -14.36706,6.461 -19.21989,9.249 -10.07127,5.7862 -14.73107,7.0964 -25.36142,7.1309 -5.96807,0.019 -8.39142,-0.4442 -11.63506,-2.2256 z M 519,1252.2646 c -3.10214,-1.0601 -8.03921,-1.5083 -15.89348,-1.4428 -6.26641,0.052 -12.21911,-0.3469 -13.22821,-0.8869 -2.34356,-1.2543 -19.10722,-24.7555 -18.43461,-25.8438 0.27763,-0.4492 2.56079,-1.3924 5.0737,-2.096 3.40242,-0.9526 10.36631,-1.1317 27.27576,-0.7017 22.97064,0.5842 36.83462,2.1729 47.46053,5.4384 l 5.75369,1.7682 -10.91288,9.7871 c -19.21134,17.2295 -18.56036,16.8937 -27.0945,13.9775 z m 245.9895,-10.9012 c -16.37448,-8.3407 -20.60938,-11.4232 -19.44134,-14.1513 1.79661,-4.1962 3.45184,-12.038 3.45184,-16.3533 0,-7.3371 2.46559,-9.4422 20.90055,-17.8444 8.78299,-4.0031 16.63037,-7.0246 17.43862,-6.7145 4.18593,1.6063 7.19428,31.852 4.20501,42.2769 -2.42337,8.4513 -8.33854,20.4232 -10.09089,20.4232 -0.80935,0 -8.21806,-3.4365 -16.46379,-7.6366 z M 645,1205.32 c -9.72135,-0.9996 -10.12153,-2.2272 -2.85562,-8.7599 C 656.53132,1183.625 683.25273,1170 694.23417,1170 h 3.02349 l -0.68169,5.25 c -1.50448,11.5866 -6.62201,27.17 -9.25422,28.18 -4.89919,1.88 -31.05842,3.0482 -42.32175,1.89 z m -118,-2.8785 c -24.01984,-5.0786 -48,-13.0421 -48,-15.9402 0,-3.7739 16.26198,-18.8414 22.33907,-20.6982 2.9685,-0.907 6.48339,-0.8842 15.5,0.1008 11.6248,1.2699 37.98124,5.5831 38.73744,6.3393 0.219,0.219 -1.14342,4.9315 -3.0276,10.4722 -1.88418,5.5408 -3.73661,12.8215 -4.11651,16.1793 l -0.69073,6.1053 -4.62084,-0.063 c -2.54145,-0.035 -9.79583,-1.1577 -16.12083,-2.495 z m 43.35118,1.6203 c -2.83185,-0.4503 -5.70429,-1.162 -6.38319,-1.5816 -1.57306,-0.9722 -0.7207,-11.8307 1.50579,-19.1828 2.50618,-8.2756 5.29903,-10.8021 15.32017,-13.8587 15.11297,-4.6097 23.59041,-9.8433 42.46603,-26.2167 6.57864,-5.7065 10.91243,-8.8261 11.15229,-8.0278 0.21576,0.7182 0.95499,3.4799 1.64272,6.137 1.45811,5.6337 6.692,14.0307 13.28617,21.3157 2.56236,2.8308 4.65884,5.5546 4.65884,6.0527 0,1.138 -15.39917,13.5605 -23.8659,19.2526 -9.13724,6.1429 -20.48649,11.5939 -29.09455,13.9741 -8.45772,2.3387 -23.03251,3.3529 -30.68837,2.1355 z M 709,1199.4039 c 0,-0.3278 0.6683,-2.9153 1.48511,-5.75 0.81682,-2.8346 2.15032,-10.2591 2.96334,-16.4987 1.70189,-13.0614 3.24556,-16.3854 9.59852,-20.6682 7.18319,-4.8425 58.36592,-26.4074 59.64359,-25.1298 0.2513,0.2513 -0.23177,1.7887 -1.0735,3.4164 -1.95452,3.7797 -3.59823,13.8856 -3.61508,22.2264 -0.0217,10.7466 -1.20114,13.3734 -7.78444,17.337 -12.25124,7.3763 -32.38901,16.6053 -48.37173,22.1685 -9.81879,3.4177 -12.84581,4.1007 -12.84581,2.8984 z m -262.26333,-8.4996 c -5.85886,-5.0217 -9.866,-10.744 -14.23095,-20.3223 l -3.34576,-7.3418 4.29609,-6.3701 c 6.45176,-9.5665 12.18278,-15.6089 21.02039,-22.1625 10.06369,-7.4628 22.98724,-13.9814 34.1088,-17.2043 10.29291,-2.9827 10.85163,-3.0253 9.88153,-0.7533 -3.9361,9.2186 -5.66906,15.8496 -6.53748,25.0149 -0.54472,5.7489 -1.62263,11.6411 -2.39536,13.0938 -0.77274,1.4527 -6.38375,7.2855 -12.46892,12.9618 -6.08517,5.6763 -14.07981,14.1138 -17.76586,18.75 -3.68605,4.6362 -6.94879,8.4266 -7.25053,8.423 -0.30174,0 -2.69212,-1.8436 -5.31195,-4.0892 z m 352.78283,-28.8155 c -1.51813,-6.912 3.15014,-32.8347 6.69786,-37.1929 0.70545,-0.8667 3.53264,-2.3939 6.28264,-3.3939 2.75,-1 12.65,-5.387 22,-9.7487 9.35,-4.3618 17.83726,-8.1812 18.86058,-8.4875 1.77886,-0.5324 1.84103,0.273 1.41549,18.3387 -0.2448,10.3925 -0.7729,19.6314 -1.17356,20.5308 -1.15793,2.5994 -46.98103,22.828 -51.77305,22.8552 -1.03541,0.01 -1.91365,-1.0973 -2.30996,-2.9017 z M 383.5,1159.147 c -12.66464,-4.4259 -37.51401,-14.761 -38.95464,-16.2016 -1.23197,-1.232 16.01899,-18.4448 22.78792,-22.7375 l 4.79939,-3.0437 6.9468,1.925 c 5.64451,1.5642 26.11794,8.9198 41.35041,14.8562 l 2.92987,1.1419 -6.48925,6.7063 c -3.5691,3.6885 -8.64469,9.3054 -11.2791,12.482 -3.85397,4.6472 -8.92852,8.7475 -10.79174,8.72 -0.16481,0 -5.24966,-1.7343 -11.29966,-3.8486 z m 279.74373,-6.0486 c -6.55524,-5.1816 -10.67516,-10.2786 -14.41797,-17.8372 -3.85863,-7.7925 -3.73577,-7.9752 9.67424,-14.3835 21.38266,-10.2184 39.46796,-14.5851 56,-13.5213 13.81661,0.8891 29.02765,6.4098 35.08725,12.7347 2.39204,2.4967 2.54962,3.0413 1.3152,4.5454 -3.6196,4.4101 -30.39375,14.5996 -42.9934,16.362 -13.502,1.8885 -30.40196,8.7718 -33.62892,13.6967 -2.17918,3.3259 -5.39794,2.8602 -11.0364,-1.5968 z M 566,1154.0635 c -2.59779,-1.5164 -12.34306,-2.9327 -28.18444,-4.0961 -27.38716,-2.0112 -27.35703,-1.9734 -17.21923,-21.6182 l 6.88888,-13.3492 14.50739,0.01 c 19.4482,0.01 25.57667,1.1061 36.5074,6.529 9.74084,4.8325 22.19506,13.5052 23.21653,16.1671 1.59955,4.1683 -20.92708,17.3224 -29.56818,17.2659 -2.55659,-0.017 -5.32335,-0.4245 -6.14835,-0.9061 z M 874.48606,1127.25 c -0.36182,-3.1625 -1.4948,-11.375 -2.51773,-18.25 -1.44107,-9.6853 -1.59061,-12.759 -0.6641,-13.6503 1.55253,-1.4934 39.34119,-25.5979 43.5078,-27.7525 L 918,1065.9486 v 3.4162 c 0,1.879 1.125,7.7461 2.5,13.0382 1.375,5.2921 2.5,12.0901 2.5,15.1066 0,4.9015 -0.38615,5.9121 -3.63182,9.5046 -2.30412,2.5504 -9.3414,7.2557 -19.25,12.8711 -15.43197,8.7456 -23.59623,13.1147 -24.50639,13.1147 -0.25733,0 -0.76391,-2.5875 -1.12573,-5.75 z m -556.16759,1.3088 c -9.52976,-2.9795 -42.75815,-22.6893 -42.04221,-24.9378 0.19632,-0.6165 2.53081,-2.696 5.18774,-4.621 2.65694,-1.925 9.24385,-6.7763 14.63759,-10.7806 l 9.8068,-7.2807 19.60711,10.557 c 20.52983,11.0539 27.4845,15.2431 27.4845,16.5556 0,0.4321 -1.57185,1.757 -3.493,2.9444 -1.92116,1.1873 -6.30866,5.3381 -9.75,9.224 -8.50886,9.6081 -12.46194,11.1457 -21.43853,8.3391 z m 623.24694,-36.7738 c -0.21927,-0.7068 -0.68003,-3.2821 -1.02392,-5.723 -0.34389,-2.4409 -1.95641,-7.7624 -3.58337,-11.8256 -5.81519,-14.5227 -3.93753,-19.0146 14.04188,-33.5924 4.125,-3.3445 11.00689,-9.1472 15.2931,-12.8949 7.82554,-6.8422 9.68665,-7.5002 9.73064,-3.4401 0.0131,1.2051 1.18471,4.891 2.60369,8.191 7.47873,17.3926 7.53601,17.5732 6.85514,21.6032 -0.92692,5.4863 -7.98122,12.8983 -24.37166,25.6074 -15.06727,11.6831 -18.92711,14.0676 -19.5455,12.0744 z m -691.11907,-5.2591 c -6.33035,-3.1663 -24.40849,-16.7472 -32.04765,-24.0752 l -5.89869,-5.6585 4.20789,-1.8372 c 2.31434,-1.0105 7.67578,-4.1773 11.91432,-7.0375 8.54995,-5.7694 13.5677,-7 19.95166,-4.8931 7.52196,2.4825 39.42613,25.4974 39.42613,28.4411 0,0.7587 -1.53281,1.8853 -3.40624,2.5036 -1.87343,0.6182 -6.26093,3.7324 -9.75,6.9203 -3.48907,3.1878 -7.32668,6.3169 -8.52802,6.9533 -3.64979,1.9338 -10.50852,1.3646 -15.8694,-1.3168 z m 750.53866,-50.1724 c -9.89141,-21.6673 -10.37754,-25.1765 -4.67702,-33.7622 1.94632,-2.93131 9.86062,-11.80106 17.58732,-19.7105 11.388,-11.65738 14.2403,-14.09673 15.0613,-12.8808 0.557,0.825 1.0197,2.43093 1.0281,3.56873 0.01,1.1378 1.8298,4.9628 4.0474,8.5 13.7448,21.92297 11.6105,26.43897 -28.2252,59.72357 -1.535,1.2826 -1.9853,0.7746 -4.8219,-5.4388 z m -804.19364,3.6684 c -4.35859,-1.3305 -8.58412,-4.695 -20.66309,-16.4526 C 165.11,1012.8441 157,1003.6948 157,1001.9897 c 0,-0.457 1.4625,-1.1476 3.25,-1.5347 1.7875,-0.3872 7.075,-2.39766 11.75,-4.46769 13.1529,-5.82394 15.36286,-6.36815 18.74921,-4.617 7.62274,3.94187 39.25079,32.57349 39.25079,35.53209 0,0.6037 -0.7875,1.1058 -1.75,1.1157 -0.9625,0.01 -4.225,1.4233 -7.25,3.1407 -16.78208,9.5278 -19.16869,10.4016 -24.20864,8.8631 z m 859.89234,-55.08724 c -0.3443,-1.33906 -3.5303,-6.82615 -7.0802,-12.19352 -8.9636,-13.55308 -9.4803,-15.42883 -6.1333,-22.26971 1.4615,-2.98727 6.3757,-10.72791 10.9203,-17.20142 4.5446,-6.47351 10.4415,-15.04688 13.1042,-19.05193 l 4.8412,-7.28193 1.2397,3.60608 c 1.1895,3.46001 3.023,6.33368 12.9345,20.27189 7.2296,10.16695 6.5202,12.99914 -8.0884,32.28928 -4.3026,5.68145 -10.813,13.46551 -14.4676,17.29791 -6.3136,6.6209 -6.6758,6.84673 -7.2704,4.53335 z M 135.70059,978.25 C 126.0572,968.30692 106,943.222 106,941.10439 c 0,-0.39734 2.1375,-0.76282 4.75,-0.81218 2.62069,-0.0495 8.53407,-1.47996 13.1914,-3.19098 9.25658,-3.40071 16.48578,-3.98238 20.85826,-1.67827 C 151.24372,938.8187 177,969.95581 177,974.35038 c 0,0.94645 -1.13491,1.85819 -2.75,2.20923 -1.5125,0.32874 -8.06171,2.36232 -14.5538,4.51905 C 153.20411,983.2354 146.62222,985 145.06977,985 c -2.17149,0 -4.33283,-1.55713 -9.36918,-6.75 z M 1103,924.70906 c 0,-2.61514 -3.8742,-8.46493 -10.5823,-15.97842 -2.3419,-2.62314 -5.2093,-6.7345 -6.3721,-9.13634 l -2.114,-4.36699 2.4489,-6.50603 c 2.557,-6.79335 17.45,-36.7844 19.9503,-40.17538 1.3773,-1.86787 1.7593,-1.64724 8.6574,5 9.4439,9.10055 17.0118,18.66696 17.0118,21.50432 0,4.10565 -24.6675,49.39017 -28.0389,51.47385 -0.5286,0.32668 -0.9611,-0.49008 -0.9611,-1.81501 z M 92.320066,920.85542 C 91.715177,920.10994 85.289551,909.15 78.040897,896.5 l -13.179371,-23 9.819237,-0.61135 c 5.40058,-0.33624 11.391266,-1.12374 13.312635,-1.75 7.930706,-2.58497 13.957792,-1.04091 19.618702,5.02603 6.19346,6.6377 26.06118,38.6051 24.73936,39.80593 -0.87843,0.79802 -22.21027,4.41831 -32.891528,5.58211 -4.511792,0.49159 -6.318343,0.31516 -7.139866,-0.6973 z M 1137.9856,853.42514 c -0.7958,-2.43081 -4.0218,-6.78045 -8.4737,-11.42514 -9.6374,-10.05471 -10.5135,-11.51204 -10.5035,-17.47251 0.01,-3.81201 1.1759,-7.68693 4.8376,-16.02749 8.6482,-19.69852 14.6415,-32.44956 15.2639,-32.47503 1.1477,-0.047 20.3856,19.60544 23.2385,23.73921 2.8444,4.12153 2.8462,4.13398 1.2505,8.93155 -1.7873,5.37372 -20.5403,43.72794 -22.848,46.72941 -1.4059,1.82856 -1.5447,1.72823 -2.7653,-2 z M 58.64977,852.93915 c -1.440971,-1.13347 -4.189461,-4.86741 -6.107756,-8.29764 -4.344853,-7.76932 -15.519708,-35.36473 -15.532525,-38.35633 -0.01724,-4.02394 3.076881,-4.62821 19.863769,-3.87932 8.510309,0.37966 15.867766,0.93408 16.349905,1.23206 0.482139,0.29798 2.701715,4.43885 4.932391,9.20193 C 90.898942,840.05035 96,851.30937 96,852.22598 c 0,0.63279 -1.46983,0.7946 -3.813543,0.41983 -2.097448,-0.3354 -7.834948,0.0492 -12.75,0.85473 -12.624218,2.06891 -17.614129,1.93414 -20.786687,-0.56139 z M 64,785.5 c -1.730107,-0.98902 -5.828149,-1.44004 -13.30718,-1.46456 -12.001636,-0.0394 -18.741437,-1.32669 -21.206496,-4.05055 -3.597523,-3.97522 -15.947598,-44.14522 -15.299882,-49.76458 0.29442,-2.55427 0.588217,-2.70525 4.813558,-2.47364 8.616862,0.47235 30.268112,4.64996 32.130291,6.19955 1.054877,0.8778 2.710704,4.88884 3.806034,9.21965 1.06635,4.21623 3.964767,14.11623 6.440925,22 4.189464,13.33872 6.33889,21.88254 5.484041,21.79869 C 66.662581,786.94508 65.375,786.28602 64,785.5 Z m 1098.3482,-9.41672 c -4.8665,-3.8042 -11.5122,-9.33914 -14.7682,-12.29987 l -5.92,-5.38314 6.42,-26.27615 6.42,-26.27616 4.5,3.47657 c 2.475,1.91211 8.325,5.57633 13,8.14272 12.517,6.8713 13.3255,7.81114 12.5647,14.60592 C 1183.1923,744.33082 1173.6158,783 1171.9525,783 c -0.4158,0 -4.7378,-3.11253 -9.6043,-6.91672 z M 29.5,710.97854 C 8.7700471,707.52103 8.287289,706.71923 3.5326492,667.84986 2.2308875,657.20791 1.2949969,648.37167 1.4528923,648.21377 c 0.1578954,-0.15789 2.7080882,0.68414 5.6670951,1.87118 7.3692066,2.95624 14.7323666,4.88898 18.6796726,4.90318 9.634972,0.0347 12.670039,5.70585 17.667065,33.01187 1.962685,10.725 3.821343,20.7375 4.130352,22.25 0.53735,2.63016 0.394951,2.74593 -3.267622,2.6566 C 42.223255,712.85524 35.55,711.98761 29.5,710.97854 Z m 1157.3758,-6.53134 c -0.8541,-0.85404 -6.4319,-4.11654 -12.3952,-7.25 -14.1481,-7.43421 -15.0223,-8.64368 -14.8406,-20.5339 0.1222,-8.00078 2.2773,-30.75587 3.9718,-41.9363 l 0.5718,-3.77301 3.5192,3.08995 c 4.1068,3.60581 10.3395,6.62427 15.2972,7.40834 5.687,0.89943 9.9247,4.12326 12.2095,9.28849 1.8438,4.16817 2.0049,5.90994 1.4542,15.72333 -0.8919,15.89282 -5.3892,39.5359 -7.5204,39.5359 -0.3931,0 -1.4135,-0.69876 -2.2675,-1.5528 z M 18.084582,633.98497 C 9.6061022,631.28128 2.3342246,628.7161 1.9248541,628.28458 0.99664173,627.30615 0.25516056,571.43241 1.1582434,570.51724 c 0.3620339,-0.36688 2.4303313,0.50565 4.5962165,1.93897 2.1658851,1.43331 7.4946751,3.86777 11.8417561,5.40991 15.10299,5.35782 17.123714,7.14141 18.445001,16.28038 1.695008,11.72392 0.625843,44.89748 -1.444006,44.80389 -0.603466,-0.0273 -8.034149,-2.26172 -16.512629,-4.96542 z M 1193,625.95432 c -1.925,-1.02671 -6.9643,-3.04069 -11.1986,-4.47552 -9.1677,-3.10665 -13.8134,-6.03867 -15.6631,-9.88542 -2.1635,-4.49919 -3.0704,-14.67894 -3.1056,-34.85778 l -0.033,-18.76439 6.1082,3.08343 c 3.3596,1.69589 8.8721,3.56142 12.25,4.14563 12.5738,2.1746 17.1045,6.26859 18.1938,16.44025 0.7812,7.29512 -0.9903,42.54386 -2.2498,44.76556 -0.6754,1.19137 -1.3553,1.11997 -4.3022,-0.45176 z M 34.567613,566.1094 C 33.587817,564.52406 25.608423,560.63153 19,558.51517 6.3262094,554.45637 4,551.31245 4,538.24235 4,530.69198 6.7000336,503.90876 8.5396108,493.21129 l 0.5655388,-3.28871 4.5750974,4.02717 c 2.516304,2.21493 8.905145,6.18365 14.197426,8.81937 11.825359,5.8894 13.118401,7.83384 13.120899,19.73088 0.0018,8.69938 -3.701062,41.1451 -4.95059,43.37842 -0.55585,0.99348 -0.969252,1.05799 -1.480369,0.23098 z M 1195.857,551.56711 c -1.4536,-1.2579 -5.7286,-3.06935 -9.5,-4.02545 -12.8367,-3.25433 -19.8539,-5.4485 -21.6629,-6.77368 -2.3812,-1.74432 -4.7666,-11.15757 -8.6434,-34.1078 -1.7503,-10.36191 -3.4559,-19.55253 -3.7902,-20.42361 -0.4787,-1.24758 -0.1994,-1.4122 1.3159,-0.77548 6.6685,2.80213 11.0129,3.79014 19.5965,4.45671 6.2944,0.4888 10.5686,1.33801 12.2372,2.43131 3.4157,2.23809 6.2968,8.11864 8.0247,16.37897 1.9005,9.08574 5.7625,39.81937 5.3747,42.77104 l -0.3095,2.35507 z M 42.753166,491.74303 c -1.56095,-2.04651 -6.257215,-5.2477 -12.448401,-8.4854 -5.468003,-2.8595 -10.774541,-6.11924 -11.792307,-7.24386 -2.59309,-2.86534 -3.074245,-11.2486 -1.134975,-19.77492 1.881928,-8.2742 10.456568,-38.40623 11.117224,-39.06689 0.249976,-0.24998 2.44871,1.1796 4.886075,3.17684 2.437364,1.99723 7.961292,5.8066 12.275395,8.46526 12.923577,7.96442 13.354298,10.31987 6.909389,37.78481 -1.923181,8.19562 -3.798666,17.48455 -4.167745,20.64207 -0.885283,7.57369 -2.387786,8.77207 -5.644655,4.50209 z M 1184.3131,473.3675 c -1.3487,-0.94212 -7.0978,-2.04372 -15,-2.87419 -17.1612,-1.80355 -17.7571,-2.08064 -21.4515,-9.97532 -4.3371,-9.26828 -13.961,-41.76508 -12.7397,-43.01799 2.7639,-2.83546 30.5087,-1.23635 35.574,2.05036 2.3414,1.51923 6.1367,12.15042 12.6814,35.52249 5.6095,20.0321 5.6905,21.61598 0.9358,18.29465 z M 60.112922,418.96684 c -2.302935,-1.66824 -8.920613,-7.63074 -14.705951,-13.25 L 34.888174,395.5 42.823557,376 c 9.855245,-24.21777 12.682565,-30.57673 13.940761,-31.35434 1.059896,-0.65505 21.298925,18.73548 23.133762,22.1639 2.303218,4.3036 1.231493,11.71484 -3.743501,25.8872 C 71.620258,405.61376 65.13479,422 64.556721,422 c -0.141154,0 -2.140864,-1.36492 -4.443799,-3.03316 z M 1144.1891,397.33942 c -7.321,-0.78937 -14.4167,-1.85565 -15.7682,-2.36949 -2.4961,-0.94901 -8.912,-13.29285 -18.4992,-35.59141 -4.8642,-11.31362 -4.9221,-12.38068 -0.6717,-12.37152 1.7875,0.004 8.3312,-0.72512 14.5416,-1.61995 10.5487,-1.51991 11.5842,-1.51524 15.7374,0.0709 2.4704,0.94344 5.3877,3.02065 6.5656,4.67498 1.9017,2.67057 19.9054,46.15677 19.9054,48.07935 0,1.07108 -6.0145,0.83038 -21.8109,-0.87284 z M 82.992867,343.30249 C 72.314725,332.05 68,326.46552 68,323.89747 c 0,-2.2932 5.673909,-13.06517 17.725083,-33.65126 l 9.51503,-16.25378 4.985797,7.25378 c 2.74218,3.98959 7.24694,9.65151 10.01057,12.58205 l 5.02478,5.32826 -0.50496,6.29075 c -3.12677,13.95695 -12.40863,35.26779 -21.708625,46.85522 -0.413962,0.44137 -4.938625,-3.60863 -10.054808,-9 z M 1093.538,324.70102 c -2.2655,-2.36444 -6.9905,-9.22694 -10.5,-15.25 -3.5096,-6.02306 -8.7843,-14.55102 -11.7218,-18.95102 l -5.3407,-8 6.7622,-0.55987 c 3.7193,-0.30793 11.8419,-1.84555 18.0502,-3.41693 l 11.2879,-2.85707 2.7121,1.99543 c 1.4917,1.09749 4.7371,4.91804 7.2121,8.49011 5.6103,8.09717 19.6715,33.43537 20.5265,36.98871 0.6328,2.63007 0.6067,2.64301 -6.6956,3.31184 -4.032,0.3693 -9.776,1.09363 -12.7646,1.60962 -2.9885,0.51599 -7.6781,0.93816 -10.4214,0.93816 -4.5714,0 -5.3316,-0.35885 -9.1069,-4.29898 z M 127,288.19856 c 0,-2.90031 -4.05969,-10.01 -6.53918,-11.452 -2.33432,-1.35757 -8.44105,-10.43912 -10.01219,-14.88952 -0.846,-2.39637 -1.28033,-5.386 -0.96518,-6.64362 C 110.16904,252.47763 139.73269,213 141.09586,213 c 1.20889,0 11.23844,15.34838 15.16737,23.21085 2.67327,5.3497 2.8763,6.38 1.89955,9.63953 -1.72559,5.75848 -26.3775,42.31019 -30.0782,44.59735 C 127.39974,290.87098 127,290.04201 127,288.19856 Z m 931,-21.8916 c -2.7126,-1.00634 -7.0179,-5.59257 -21.2348,-22.6206 -7.7209,-9.2475 -13.6391,-17.15373 -13.1516,-17.56942 1.8656,-1.59071 21.4854,-10.11307 25.7597,-11.18935 9.2119,-2.3196 13.4952,1.18088 32.5116,26.56989 7.7814,10.38907 11.5671,16.2264 10.7986,16.65047 -1.5139,0.8353 -26.2156,7.56122 -30.1835,8.21853 -1.65,0.27333 -3.675,0.24655 -4.5,-0.0595 z M 172.54626,227.14577 c -0.32368,-1.01983 -3.28643,-6.06184 -6.58389,-11.20446 -3.29747,-5.14263 -6.4679,-11.10498 -7.0454,-13.24966 -1.85436,-6.88658 1.94012,-12.68303 20.5824,-31.44165 8.88207,-8.9375 16.84474,-16.25 17.69482,-16.25 1.09667,0 1.89966,1.79967 2.7646,6.19605 0.67045,3.40783 2.98014,10.10731 5.13265,14.88773 5.03564,11.18346 5.48129,13.67609 3.08113,17.23349 C 202.76623,201.33027 176.00676,229 173.66371,229 c -0.29092,0 -0.79376,-0.83441 -1.11745,-1.85423 z m 832.66284,-21.68058 c -6.68115,-3.39032 -21.59662,-16.818 -30.70336,-27.64074 C 971.77607,174.58042 971.24441,172 973.30569,172 c 0.71813,0 6.22147,-2.92421 12.22965,-6.49824 15.46746,-9.201 16.29136,-9.40042 22.18566,-5.36966 2.6285,1.79744 12.1344,10.49053 21.1244,19.31798 l 16.3454,16.04992 -12.0322,5.81573 c -15.1457,7.32064 -20.2166,8.07348 -27.9495,4.14946 z M 224.66667,178.33333 c -0.36667,-0.36666 -0.67216,-2.05416 -0.67888,-3.75 -0.007,-1.69583 -1.62349,-6.68333 -3.59284,-11.08333 -6.42657,-14.3585 -6.68041,-15.16483 -5.96854,-18.95941 0.4673,-2.49095 2.28672,-5.20568 5.91093,-8.81961 C 225.27722,130.79511 255.8569,107 257.24738,107 c 0.7598,0 8.28888,22.85441 9.25333,28.08834 0.71167,3.86212 -1.22235,9.833 -4.28885,13.24093 -0.94152,1.04636 -8.46186,7.42728 -16.71186,14.17983 -8.25,6.75256 -15.85724,13.22542 -16.90499,14.38414 -2.01114,2.22416 -2.84031,2.52813 -3.92834,1.44009 z m 725.02141,-21.77264 c -9.5072,-5.07823 -25.49273,-16.57757 -33.89878,-24.3854 l -4.71071,-4.37546 4.58819,-2.43956 c 2.5235,-1.34176 7.28928,-4.51801 10.59062,-7.05833 3.30134,-2.54033 8.28027,-5.86441 11.06429,-7.38687 4.83407,-2.64353 5.19948,-2.69739 8.12008,-1.19705 5.20576,2.67425 14.46925,9.17897 29.336,20.5994 l 14.27778,10.96799 -7.77778,5.00515 c -9.68941,6.23534 -19.87954,11.48277 -23.79521,12.25341 -2.12347,0.41791 -4.36857,-0.15334 -7.79448,-1.98328 z M 282.65123,127.25 c -0.34852,-3.1625 -1.76263,-9.25464 -3.14245,-13.5381 C 278.12895,109.42845 277,103.97326 277,101.58926 c 0,-3.819171 0.50532,-4.799649 4.25,-8.246377 2.3375,-2.15151 6.275,-5.296195 8.75,-6.988188 C 295.99035,82.25949 323.81888,66 324.83758,66 c 0.83048,0 2.67251,14.129208 3.78835,29.058405 l 0.63967,8.558405 -4.04441,3.44159 C 321.73648,110.02372 284.99435,133 283.73713,133 c -0.24872,0 -0.73737,-2.5875 -1.0859,-5.75 z M 887.17764,113.53536 C 877.29851,109.46606 848,94.088988 848,92.973301 c 0,-1.21801 22.42547,-22.327862 25.42439,-23.932834 2.51266,-1.344735 3.22355,-1.166309 11.37786,2.855727 13.42344,6.620983 33.23698,18.15373 36.63705,21.325111 l 3.0607,2.854835 -2.93539,2.21193 c -1.61447,1.216561 -5.66447,4.49029 -9,7.27495 -8.17206,6.82242 -14.62923,11.4409 -15.96465,11.41868 -0.60498,-0.0101 -4.84502,-1.56092 -9.42232,-3.44634 z M 347.20888,88.508691 C 347.12941,85.48847 346.32186,79.352795 345.41431,74.873856 342.46754,60.330951 343.99204,58.624272 372,45.111262 c 14.74311,-7.113117 23.30771,-10.136882 24.71786,-8.726737 1.0328,1.032801 1.00806,25.792108 -0.0319,31.883672 l -0.814,4.768197 -15.03933,7.448965 C 365.97715,87.843284 351.3429,94 348.70894,94 c -0.95867,0 -1.39789,-1.607875 -1.50006,-5.491309 z M 801.99777,74.362675 c -11.82377,-4.750528 -21.82113,-8.921383 -22.21634,-9.268567 -0.39521,-0.347184 2.97979,-5.572888 7.5,-11.612675 6.66107,-8.900346 9.14623,-11.441185 13.11363,-13.407441 4.50671,-2.233539 5.32626,-2.335564 10.33007,-1.286003 5.82299,1.221385 28.98156,10.21037 40.98939,15.910007 l 7.31433,3.471823 -3.76442,2.545715 c -2.07044,1.400143 -6.61098,5.203385 -10.0901,8.451648 C 834.94084,78.72164 829.05926,83 826.15798,83 824.69364,83 813.82155,79.113204 801.99777,74.362675 Z M 416,59.460586 c 0,-8.797592 1.74933,-25.671065 3.00335,-28.969394 0.96279,-2.532342 6.85053,-4.742247 28.99665,-10.883606 14.99073,-4.157093 24.72686,-6.214063 25.54416,-5.396763 0.32974,0.329746 -0.14072,2.779706 -1.04547,5.444357 -0.90476,2.664651 -2.03098,9.592872 -2.50272,15.396046 -1.00703,12.388105 -2.03156,15.118867 -6.31919,16.843054 C 457.41582,54.41201 418.91094,67 417.47053,67 416.30652,67 416,65.428468 416,59.460586 Z m 328,-4.114514 c -5.91501,-1.122406 -29.86951,-7.515195 -33.84516,-9.032328 -4.34306,-1.657343 -4.34397,-1.658758 -1.8911,-2.943945 1.56886,-0.822009 4.55584,-5.314769 8.28097,-12.455503 C 723.88226,16.848869 725.47825,15.65611 736,16.374415 c 6.54413,0.446758 39.01657,8.40019 47.56305,11.649557 l 2.81262,1.069355 -2.98045,1.812522 c -4.01304,2.440472 -7.64808,6.912415 -11.51286,14.163485 -4.59684,8.624561 -7.49922,10.392949 -17.38236,10.590897 -4.4,0.08813 -9.125,-0.05324 -10.5,-0.314159 z M 485.2194,47.25 c 2.66458,-5.176417 3.66023,-9.326596 4.25832,-17.75 0.91873,-12.939257 2.39952,-16.097665 8.95138,-19.092632 4.78838,-2.1888461 27.78734,-6.1225185 46.8952,-8.0208136 l 6.8243,-0.6779688 -1.66816,3.8957072 c -3.21596,7.5103312 -4.48049,11.6741442 -4.48602,14.7714342 -0.0168,9.389943 -4.93392,16.004649 -14.10775,18.978158 C 527.77341,40.687111 488.46242,48 485.40881,48 c -0.31651,0 -0.40175,-0.3375 -0.18941,-0.75 z m 172.06688,-7.175028 c -12.21755,-1.467997 -22.48644,-2.941803 -22.81976,-3.275123 -0.33333,-0.333321 0.29757,-2.377257 1.40198,-4.54208 1.10441,-2.164822 3.65423,-7.94593 5.66626,-12.846905 2.01204,-4.900975 5.0531,-10.373364 6.75791,-12.160864 3.02531,-3.1720396 3.30485,-3.2499709 11.6535,-3.2487873 13.98578,0.00198 45.40071,3.9456701 47.4062,5.951158 0.59328,0.5932793 -0.2854,2.3462633 -2.361,4.7102403 -1.81828,2.070904 -5.20437,7.831505 -7.52464,12.801335 -4.39885,9.421951 -7.0485,12.676033 -11.78183,14.469442 -3.3654,1.275114 -1.06863,1.425415 -28.39862,-1.858416 z M 562.25,36.352164 c -2.77107,-0.605036 -2.82206,-1.658558 -0.24893,-5.142657 1.19197,-1.613972 2.8018,-6.914858 3.98147,-13.110294 C 569.07649,1.8502647 570.36109,1.097727 596.39888,0.28090499 615.22034,-0.30953626 630,0.4935773 630,2.1067601 630,2.6216263 628.91084,4.7207324 627.57965,6.7714403 626.24846,8.8221481 623.74866,14.55 622.02452,19.5 616.16102,36.334165 616.31779,36.258726 586.5,36.595185 574.4,36.73172 563.4875,36.62236 562.25,36.352164 Z"
             id="path170"
             sodipodi:nodetypes="sssssscsssscssssssssssssssssssssssssscssssssssscsssssssssssssscsssssssssssssssscsssscssssssssssssscssssssssssssssssssssscsscsssssssscssssssssssssscssscssssssccccsssssssssssssssssssssssscsssssssscsssssssscsssscsscsscsssssssssscssccsscccsssscssssssssssscssssssssssssssssscsssssscscsssccscssssssssssssssscsssssssssssssssssscsssssssscsssssssscsssssssssssssssssssssssssssscccsssssssssssssssssscsssssssssssssscssccssssccsssscssssssssssssssscsssssssssssssssssssscssssssssssssssssssscsscccsssscsscssssssssssssssssssssssssssssssssssssssssscssscssssssssssscssssscsssssssssscsssssssscssssssssscssssssssscssssssssssssssssssscsssssssscsssssssssssssssssssssssss" />
          <g
             id="g3089"
             transform="translate(-211.11864,-43.983051)">
            <path
               d="m 808.99041,1087.4466 c -17.8051,-7.7349 -45.2609,-26.9359 -64.4616,-45.0808 -18.1982,-17.1975 -29.4381,-31.0683 -42.406,-52.3323 l -7.2015,-11.8085 7.6269,-12.0387 c 21.2293,-33.50955 43.4422,-90.99848 43.4422,-112.43218 0,-5.287 -2.5828,-5.0176 28,-2.9203 29.7408,2.0395 27.6482,1.4658 28.3858,7.7825 0.3356,2.8742 1.2756,17.3757 2.0888,32.2257 3.099,56.59243 6.7496,94.26958 9.6649,99.74998 1.7363,3.2643 3.7555,1.925 5.277,-3.5 3.0679,-10.9392 5.2713,-34.44925 8.552,-91.24998 2.2862,-39.5839 2.6781,-43.5074 4.3428,-43.4814 0.6538,0.01 12.5855,-0.7483 26.5149,-1.6856 20.4121,-1.3736 25.4788,-1.4575 26.1124,-0.4322 0.4324,0.6996 1.578,5.8456 2.5458,11.4356 5.2693,30.4366 20.1208,67.30173 41.0469,101.88838 4.6578,7.6984 8.4687,14.3731 8.4687,14.8326 0,1.1773 -6.417,12.0673 -12.3405,20.9426 -17.1654,25.7192 -45.449,53.8105 -71.6595,71.1725 -12.9168,8.556 -33.102,19.832 -35.4295,19.7916 -1.1388,-0.02 -4.9955,-1.3065 -8.5705,-2.8595 z M 615.37091,972.3653 c -21.2066,-5.5601 -41.386,-22.67875 -50.7248,-43.03115 -3.7847,-8.24833 -9.6557,-24.83743 -9.6557,-27.28333 0,-1.3314 1.1097,-1.2086 7.75,0.8579 10.3645,3.2256 22.2169,5.4349 29.1105,5.4263 8.2122,-0.01 21.4035,-3.4761 31.134,-8.1802 7.0774,-3.4215 10.0884,-5.7086 18.0498,-13.7097 7.7846,-7.8234 10.4031,-11.271 14.1294,-18.6031 2.5158,-4.95 5.5322,-11.925 6.7032,-15.5 3.0927,-9.4414 5.6782,-13.3266 8.4175,-12.6485 1.2131,0.3003 12.5556,1.941 25.2056,3.6461 13.75,1.8533 24.3981,3.7842 26.4763,4.8013 6.2109,3.0394 5.848,7.6062 -2.6605,33.4738 -21.9642,66.77633 -62.0106,101.74258 -103.9353,90.75058 z m 375.5842,-0.1847 c -14.4347,-1.3523 -24.099,-6.8073 -37.9652,-21.42925 -14.1506,-14.922 -23.7795,-29.60063 -31.8632,-48.57323 -8.3374,-19.5682 -15.1363,-41.5345 -15.1363,-48.9031 0,-3.1036 0.4372,-3.858 2.75,-4.7446 4.5224,-1.7337 5.769,-1.9618 31.2172,-5.7105 28.3275,-4.1728 25.4379,-4.9414 29.5851,7.8695 3.2097,9.9152 5.3224,14.136 11.7392,23.453 7.2735,10.5609 17.80259,19.9811 28.26299,25.2864 l 8.7015,4.4132 17.209,0.3459 c 15.1826,0.3052 28.1111,-0.5642 36.785,-2.4736 2.418,-0.5323 2.75,-0.3088 2.75,1.8512 0,4.4865 -3.9851,18.1782 -7.357,25.27653 -9.1156,19.1897 -29.4254,35.74045 -50.8024,41.39965 -8.8818,2.3514 -15.8778,2.8756 -25.87589,1.9389 z M 764.99041,828.27362 c -25.4767,-1.4416 -74.0268,-7.8013 -95.2495,-12.477 -19.3063,-4.2534 -32.0619,-9.2056 -35.1809,-13.6586 -0.8633,-1.2326 -1.5696,-3.9008 -1.5696,-5.9296 0,-2.8659 0.6651,-4.2482 2.9822,-6.1979 8.64,-7.2701 50.3282,-17.8067 81.5178,-20.6035 45.5239,-4.0822 150.2897,-4.0848 196,-0.01 6.6,0.589 18.5233,2.1717 26.4962,3.5171 46.3843,7.8267 67.70619,18.5374 57.87879,29.0744 -8.97789,9.6262 -48.52619,18.8646 -101.87499,23.7979 -33.1821,3.0684 -98.7015,4.3099 -131,2.4822 z m 89.5,-18.9324 c 66.8986,-1.4165 90.1514,-3.0097 110.5,-7.5712 13.1982,-2.9585 15.2586,-5.4737 6.9917,-8.5347 -20.6012,-7.6281 -117.4673,-13.247 -188.3885,-10.9279 -62.2994,2.0371 -113.9173,6.7964 -125.3014,11.553 -7.8615,3.2847 -2.3407,5.9269 19.6982,9.4271 41.0497,6.5195 84.3542,8.0048 176.5,6.0537 z m -378.8952,-48.0977 c -37.8326,-3.9893 -71.9439,-29.3565 -93.1956,-69.3056 -25.7565,-48.4172 -21.6308,-112.7099 10.0811,-157.0959 25.3108,-35.4266 59.4401,-56.6954 100.4015,-62.5683 11.7833,-1.6895 37.8941,-0.6452 49.9575,1.9979 52.8809,11.5864 99.5188,50.9675 135.6826,114.5704 21.3914,37.6221 36.2931,79.7063 44.966,126.9899 2.5264,13.7733 3.6471,29.6985 2.1924,31.1532 -0.4087,0.4086 -7.3687,1.3083 -15.4667,1.9992 -8.098,0.6909 -21.8308,2.4041 -30.5173,3.807 -8.6865,1.4029 -16.5984,2.5507 -17.5818,2.5507 -1.3521,0 -2.7226,-2.4998 -5.6194,-10.25 -9.4874,-25.3824 -20.1642,-43.4166 -33.9688,-57.3768 -18.3675,-18.5744 -40.1444,-27.3884 -60.1692,-24.353 -26.0832,3.9538 -44.9527,18.1496 -54.3202,40.8661 -4.8949,11.8702 -6.2887,20.0283 -6.8109,39.8637 l -0.4804,18.25 -8.6278,-0.133 c -4.7453,-0.073 -12.1806,-0.5076 -16.523,-0.9655 z m -6.6896,-122.5871 c 1.707,-2.5772 5.5929,-9.5522 8.6353,-15.5 6.0387,-11.8055 5.5804,-11.4963 14.5241,-9.8002 8.8463,1.6777 22.654,3.0272 24.3426,2.3792 0.8705,-0.334 1.5828,-1.272 1.5828,-2.0844 0,-0.8123 -5.1841,-6.7728 -11.5202,-13.2453 l -11.5202,-11.7683 6.0163,-12.3977 c 5.5297,-11.3949 7.9507,-18.3044 6.8124,-19.4426 -0.6532,-0.6533 -11.6331,3.947 -22.8202,9.5609 l -9.6718,4.8536 -4.8982,-5.016 c -2.694,-2.7587 -8.8984,-8.6854 -13.7877,-13.1704 l -8.8896,-8.1544 0.7141,7.4856 c 0.3927,4.1171 1.4923,11.8344 2.4435,17.1496 0.9511,5.3152 1.4094,10.529 1.0183,11.5862 -0.7409,2.0028 -5.8052,5.4509 -16.984,11.5637 -3.623,1.9811 -7.673,4.5207 -9,5.6434 -2.2294,1.8863 -2.2839,2.1417 -0.7181,3.3618 0.932,0.7262 8.582,2.5592 17,4.0733 8.418,1.514 15.5785,3.0576 15.9123,3.4302 0.3338,0.3726 1.1408,5.8524 1.7934,12.1774 1.037,10.0518 2.1277,16.3075 3.6177,20.75 0.7592,2.2638 2.2511,1.3141 5.3972,-3.4356 z m 661.83209,102.9356 c -0.3871,-16.7591 -0.8771,-22.2221 -2.5479,-28.4041 -3.8371,-14.198 -10.455,-24.7027 -21.1244,-33.531 -14.139,-11.6993 -30.7046,-17.0966 -49.075,-15.9896 -18.5548,1.1181 -30.0453,6.7178 -45.5,22.1739 -14.5858,14.587 -25.68549,31.6069 -32.93489,50.5008 -2.0047,5.225 -4.5511,11.4741 -5.6585,13.8869 l -2.0136,4.3869 -5.6965,-0.6059 c -55.3066,-5.8824 -57.3498,-6.2173 -59.2176,-9.7073 -1.6005,-2.9904 -1.1329,-10.6716 1.5825,-26.0008 9.6732,-54.6069 32.456,-112.4993 60.1952,-152.9598 34.60539,-50.4754 76.40229,-81.7733 122.48559,-91.7179 11.7877,-2.5438 43.7669,-2.5264 55.7578,0.03 40.1632,8.5636 72.7984,30.6774 95.5745,64.7619 17.6225,26.3721 23.879,49.8691 23.8111,89.4257 -0.034,19.5483 -0.2189,21.6671 -2.6819,30.6511 -13.8142,50.3891 -49.4846,88.8141 -92.6871,99.8446 -7.4709,1.9075 -25.6888,3.9783 -35.1533,3.9957 l -4.6366,0.01 -0.4794,-20.75 z m 39.1216,-102.5 c 0.6209,-2.3375 1.5994,-7.3585 2.1744,-11.1578 2.1812,-14.4117 2.8957,-16.5093 6.2073,-18.2218 1.6921,-0.875 9.3536,-2.8669 17.0255,-4.4265 7.6719,-1.5595 14.2291,-3.1157 14.5715,-3.4581 0.9,-0.9 -2.9184,-3.5965 -15.1605,-10.7061 -16.4354,-9.5449 -15.1179,-7.7244 -13.2425,-18.2988 2.0221,-11.4016 3.1582,-27.4809 1.9418,-27.4809 -0.5034,0 -6.7101,5.8078 -13.7927,12.9061 l -12.8774,12.9061 -13.9767,-6.9061 c -14.312,-7.0717 -17.7396,-8.1009 -17.7396,-5.3266 0,2.2015 4.535,13.4177 9.2176,22.7975 l 3.9324,7.8769 -12.825,13.0593 c -9.5615,9.7361 -12.3798,13.1578 -11.0754,13.4463 0.9622,0.2129 8.8946,-0.3209 17.6274,-1.1862 8.7329,-0.8653 16.6043,-1.5733 17.4921,-1.5733 1.0548,0 3.5539,3.8677 7.2116,11.1611 6.3595,12.6803 10.0541,18.8389 11.3019,18.8389 0.4716,0 1.3655,-1.9125 1.9863,-4.25 z m -420.03769,102.9346 c -0.544,-1.0164 -2.3151,-9.0074 -3.936,-17.7578 -7.3693,-39.7852 -18.6247,-72.624 -50.2859,-146.7139 -29.3765,-68.7437 -36.8504,-90.0012 -42.793,-121.71286 -1.8572,-9.91038 -2.2547,-15.56977 -2.2826,-32.5 -0.035,-21.35024 0.6503,-27.48174 5.0465,-45.14255 3.6034,-14.47628 7.8287,-25.83994 15.3776,-41.35745 15.5924,-32.05179 33.0351,-53.0866 67.7558,-81.70944 39.6895,-32.71899 55.9711,-46.58407 66.0954,-56.28559 l 11.183,-10.71598 10.254,9.75675 c 9.7433,9.27085 24.833,22.08593 61.7646,52.45426 44.0296,36.20489 66.2998,64.52931 81.7384,103.95937 23.20029,59.25297 16.7427,109.63269 -26.7301,208.54059 -23.5455,53.5699 -33.5299,78.1138 -41.4268,101.8357 -6.0825,18.2715 -9.9681,33.8062 -14.6393,58.5285 -2.1163,11.2003 -4.0443,20.5606 -4.2844,20.8008 -0.7378,0.7378 -50.4573,-1.1206 -51.2524,-1.9156 -0.4103,-0.4103 -1.0978,-27.4092 -1.5279,-59.9977 -1.6781,-127.1572 -2.9915,-198.9028 -3.9131,-213.75166 -0.5291,-8.525 -1.8677,-35.525 -2.9746,-60 -2.826,-62.48566 -4.3069,-83 -5.9916,-83 -2.4913,0 -4.8629,30.04965 -8.4841,107.5 -2.9254,62.56656 -4.0236,107.70796 -6.3667,261.70056 -0.3992,26.2353 -0.9356,47.9002 -1.1919,48.1441 -0.2564,0.244 -11.6441,0.611 -25.3061,0.8157 -23.3474,0.3497 -24.8993,0.261 -25.8288,-1.4758 z"
               style="fill:#ff0000;fill-opacity:1;stroke:#000000;stroke-width:6;stroke-dasharray:none;stroke-opacity:1"
               id="path3060" />
          </g>
        </g>
      </g>
    </g>
    <text
       xml:space="preserve"
       style="font-style:italic;font-variant:normal;font-weight:bold;font-stretch:normal;font-size:92px;font-family:'Franklin Gothic Medium';-inkscape-font-specification:'Franklin Gothic Medium,  Bold Italic';text-align:center;letter-spacing:7px;text-anchor:middle;opacity:1;fill:url(#linearGradient5012);fill-opacity:1;stroke:#000000;stroke-width:12;stroke-dasharray:none;stroke-opacity:1;paint-order:stroke markers fill"
       id="text3925"
       transform="rotate(65.056822,672.9016,729.28384)"><textPath
         xlink:href="#path3143"
         startOffset="50%"
         id="textPath3977"
         style="font-style:italic;font-variant:normal;font-weight:bold;font-stretch:normal;font-size:92px;font-family:'Franklin Gothic Medium';-inkscape-font-specification:'Franklin Gothic Medium,  Bold Italic';fill:url(#linearGradient5012);fill-opacity:1">BIG ADVENTURE SCOUT GROUP CORK - BIG ADVENTURE SCOUT GROUP CORK -</textPath></text>
  </g>
</svg>
