<?xml version="1.0" encoding="UTF-8" standalone="no"?>
<!-- Created with Inkscape (http://www.inkscape.org/) -->

<svg
   width="24.323231mm"
   height="23.948105mm"
   viewBox="0 0 24.323231 23.948105"
   version="1.1"
   id="svg5"
   xml:space="preserve"
   xmlns:inkscape="http://www.inkscape.org/namespaces/inkscape"
   xmlns:sodipodi="http://sodipodi.sourceforge.net/DTD/sodipodi-0.dtd"
   xmlns:xlink="http://www.w3.org/1999/xlink"
   xmlns="http://www.w3.org/2000/svg"
   xmlns:svg="http://www.w3.org/2000/svg"><sodipodi:namedview
     id="namedview7"
     pagecolor="#ffffff"
     bordercolor="#000000"
     borderopacity="0.25"
     inkscape:showpageshadow="2"
     inkscape:pageopacity="0.0"
     inkscape:pagecheckerboard="0"
     inkscape:deskcolor="#d1d1d1"
     inkscape:document-units="mm"
     showgrid="false" /><defs
     id="defs2"><linearGradient
       inkscape:collect="always"
       id="linearGradient5010"><stop
         style="stop-color:#ffed7a;stop-opacity:1;"
         offset="0"
         id="stop5006" /><stop
         style="stop-color:#ff6600;stop-opacity:1;"
         offset="1"
         id="stop5008" /></linearGradient><linearGradient
       inkscape:collect="always"
       xlink:href="#linearGradient5010"
       id="linearGradient5012"
       x1="422.53934"
       y1="403.97998"
       x2="1446.8073"
       y2="561.27899"
       gradientUnits="userSpaceOnUse"
       gradientTransform="matrix(0.26459965,0,0,0.26018751,-99.778093,-193.60315)" /><filter
       style="color-interpolation-filters:sRGB"
       inkscape:label="Fade to Black or White"
       id="filter10723"
       x="-0.0051333727"
       y="-0.005217819"
       width="1.0102638"
       height="1.0104353"><feColorMatrix
         values="0.417445 0 0 0 0 0 0.417445 0 0 0 0 0 0.417445 0 0 0 0 0 1 0"
         id="feColorMatrix10721" /></filter><filter
       style="color-interpolation-filters:sRGB"
       inkscape:label="Greyscale"
       id="filter11533"
       x="-0.0046313419"
       y="-0.0047045699"
       width="1.0092627"
       height="1.0094091"><feColorMatrix
         values="2 -0.5 -0.5 0 -0.28 -0.5 2 -0.5 0 -0.28 -0.5 -0.5 2 0 -0.28 0 0 0 1 0 "
         id="feColorMatrix11531"
         result="fbSourceGraphic" /><feColorMatrix
         result="fbSourceGraphicAlpha"
         in="fbSourceGraphic"
         values="0 0 0 -1 0 0 0 0 -1 0 0 0 0 -1 0 0 0 0 1 0"
         id="feColorMatrix12038" /><feColorMatrix
         id="feColorMatrix12040"
         values="-0.031348 3.29154 8.30721 0.783699 0 -0.031348 3.29154 8.30721 0.783699 0 -0.031348 3.29154 8.30721 0.783699 0 0 0 0 1 0 "
         in="fbSourceGraphic"
         result="fbSourceGraphic" /><feColorMatrix
         result="fbSourceGraphicAlpha"
         in="fbSourceGraphic"
         values="0 0 0 -1 0 0 0 0 -1 0 0 0 0 -1 0 0 0 0 1 0"
         id="feColorMatrix12042" /><feColorMatrix
         id="feColorMatrix12044"
         values="-0.031348 3.29154 8.30721 0.783699 0 -0.031348 3.29154 8.30721 0.783699 0 -0.031348 3.29154 8.30721 0.783699 0 0 0 0 1 0 "
         in="fbSourceGraphic" /></filter></defs><g
     inkscape:label="Layer 1"
     inkscape:groupmode="layer"
     id="layer1"
     transform="translate(51.276056,-129.96981)"><g
       id="g11102"
       transform="matrix(0.07089816,0,0,0.07089816,-44.331574,142.27673)"
       style="filter:url(#filter11533)"><g
         id="g10344"
         style="filter:url(#filter10723)"
         transform="translate(-4.4376137)"
         inkscape:export-filename="white_logo.svg"
         inkscape:export-xdpi="96"
         inkscape:export-ydpi="96"><path
           style="fill:none;fill-opacity:1;stroke:#000000;stroke-width:3.14861;stroke-dasharray:none;stroke-opacity:1;paint-order:stroke markers fill"
           id="path3143"
           sodipodi:type="arc"
           sodipodi:cx="-7.0419278"
           sodipodi:cy="-77.264236"
           sodipodi:rx="150.88303"
           sodipodi:ry="153.43384"
           sodipodi:start="0"
           sodipodi:end="6.2287325"
           sodipodi:open="true"
           sodipodi:arc-type="chord"
           d="M 143.8411,-77.264236 A 150.88303,153.43384 0 0 1 -4.9879902,76.155385 150.88303,153.43384 0 0 1 -157.86903,-73.087301 150.88303,153.43384 0 0 1 -13.202218,-230.57014 150.88303,153.43384 0 0 1 143.61746,-85.615011 Z"
           transform="matrix(-0.03940403,0.99922336,-0.99927382,-0.03810281,0,0)" /><g
           id="g329"
           transform="matrix(0.26459965,0,0,0.26018751,-80.787481,-160.48931)"><g
             id="g335"><g
               id="g3089"
               transform="translate(-211.11864,-43.983051)"><path
                 d="m 808.99041,1087.4466 c -17.8051,-7.7349 -45.2609,-26.9359 -64.4616,-45.0808 -18.1982,-17.1975 -29.4381,-31.0683 -42.406,-52.3323 l -7.2015,-11.8085 7.6269,-12.0387 c 21.2293,-33.50955 43.4422,-90.99848 43.4422,-112.43218 0,-5.287 -2.5828,-5.0176 28,-2.9203 29.7408,2.0395 27.6482,1.4658 28.3858,7.7825 0.3356,2.8742 1.2756,17.3757 2.0888,32.2257 3.099,56.59243 6.7496,94.26958 9.6649,99.74998 1.7363,3.2643 3.7555,1.925 5.277,-3.5 3.0679,-10.9392 5.2713,-34.44925 8.552,-91.24998 2.2862,-39.5839 2.6781,-43.5074 4.3428,-43.4814 0.6538,0.01 12.5855,-0.7483 26.5149,-1.6856 20.4121,-1.3736 25.4788,-1.4575 26.1124,-0.4322 0.4324,0.6996 1.578,5.8456 2.5458,11.4356 5.2693,30.4366 20.1208,67.30173 41.0469,101.88838 4.6578,7.6984 8.4687,14.3731 8.4687,14.8326 0,1.1773 -6.417,12.0673 -12.3405,20.9426 -17.1654,25.7192 -45.449,53.8105 -71.6595,71.1725 -12.9168,8.556 -33.102,19.832 -35.4295,19.7916 -1.1388,-0.02 -4.9955,-1.3065 -8.5705,-2.8595 z M 615.37091,972.3653 c -21.2066,-5.5601 -41.386,-22.67875 -50.7248,-43.03115 -3.7847,-8.24833 -9.6557,-24.83743 -9.6557,-27.28333 0,-1.3314 1.1097,-1.2086 7.75,0.8579 10.3645,3.2256 22.2169,5.4349 29.1105,5.4263 8.2122,-0.01 21.4035,-3.4761 31.134,-8.1802 7.0774,-3.4215 10.0884,-5.7086 18.0498,-13.7097 7.7846,-7.8234 10.4031,-11.271 14.1294,-18.6031 2.5158,-4.95 5.5322,-11.925 6.7032,-15.5 3.0927,-9.4414 5.6782,-13.3266 8.4175,-12.6485 1.2131,0.3003 12.5556,1.941 25.2056,3.6461 13.75,1.8533 24.3981,3.7842 26.4763,4.8013 6.2109,3.0394 5.848,7.6062 -2.6605,33.4738 -21.9642,66.77633 -62.0106,101.74258 -103.9353,90.75058 z m 375.5842,-0.1847 c -14.4347,-1.3523 -24.099,-6.8073 -37.9652,-21.42925 -14.1506,-14.922 -23.7795,-29.60063 -31.8632,-48.57323 -8.3374,-19.5682 -15.1363,-41.5345 -15.1363,-48.9031 0,-3.1036 0.4372,-3.858 2.75,-4.7446 4.5224,-1.7337 5.769,-1.9618 31.2172,-5.7105 28.3275,-4.1728 25.4379,-4.9414 29.5851,7.8695 3.2097,9.9152 5.3224,14.136 11.7392,23.453 7.2735,10.5609 17.80259,19.9811 28.26299,25.2864 l 8.7015,4.4132 17.209,0.3459 c 15.1826,0.3052 28.1111,-0.5642 36.785,-2.4736 2.418,-0.5323 2.75,-0.3088 2.75,1.8512 0,4.4865 -3.9851,18.1782 -7.357,25.27653 -9.1156,19.1897 -29.4254,35.74045 -50.8024,41.39965 -8.8818,2.3514 -15.8778,2.8756 -25.87589,1.9389 z M 764.99041,828.27362 c -25.4767,-1.4416 -74.0268,-7.8013 -95.2495,-12.477 -19.3063,-4.2534 -32.0619,-9.2056 -35.1809,-13.6586 -0.8633,-1.2326 -1.5696,-3.9008 -1.5696,-5.9296 0,-2.8659 0.6651,-4.2482 2.9822,-6.1979 8.64,-7.2701 50.3282,-17.8067 81.5178,-20.6035 45.5239,-4.0822 150.2897,-4.0848 196,-0.01 6.6,0.589 18.5233,2.1717 26.4962,3.5171 46.3843,7.8267 67.70619,18.5374 57.87879,29.0744 -8.97789,9.6262 -48.52619,18.8646 -101.87499,23.7979 -33.1821,3.0684 -98.7015,4.3099 -131,2.4822 z m 89.5,-18.9324 c 66.8986,-1.4165 90.1514,-3.0097 110.5,-7.5712 13.1982,-2.9585 15.2586,-5.4737 6.9917,-8.5347 -20.6012,-7.6281 -117.4673,-13.247 -188.3885,-10.9279 -62.2994,2.0371 -113.9173,6.7964 -125.3014,11.553 -7.8615,3.2847 -2.3407,5.9269 19.6982,9.4271 41.0497,6.5195 84.3542,8.0048 176.5,6.0537 z m -378.8952,-48.0977 c -37.8326,-3.9893 -71.9439,-29.3565 -93.1956,-69.3056 -25.7565,-48.4172 -21.6308,-112.7099 10.0811,-157.0959 25.3108,-35.4266 59.4401,-56.6954 100.4015,-62.5683 11.7833,-1.6895 37.8941,-0.6452 49.9575,1.9979 52.8809,11.5864 99.5188,50.9675 135.6826,114.5704 21.3914,37.6221 36.2931,79.7063 44.966,126.9899 2.5264,13.7733 3.6471,29.6985 2.1924,31.1532 -0.4087,0.4086 -7.3687,1.3083 -15.4667,1.9992 -8.098,0.6909 -21.8308,2.4041 -30.5173,3.807 -8.6865,1.4029 -16.5984,2.5507 -17.5818,2.5507 -1.3521,0 -2.7226,-2.4998 -5.6194,-10.25 -9.4874,-25.3824 -20.1642,-43.4166 -33.9688,-57.3768 -18.3675,-18.5744 -40.1444,-27.3884 -60.1692,-24.353 -26.0832,3.9538 -44.9527,18.1496 -54.3202,40.8661 -4.8949,11.8702 -6.2887,20.0283 -6.8109,39.8637 l -0.4804,18.25 -8.6278,-0.133 c -4.7453,-0.073 -12.1806,-0.5076 -16.523,-0.9655 z m -6.6896,-122.5871 c 1.707,-2.5772 5.5929,-9.5522 8.6353,-15.5 6.0387,-11.8055 5.5804,-11.4963 14.5241,-9.8002 8.8463,1.6777 22.654,3.0272 24.3426,2.3792 0.8705,-0.334 1.5828,-1.272 1.5828,-2.0844 0,-0.8123 -5.1841,-6.7728 -11.5202,-13.2453 l -11.5202,-11.7683 6.0163,-12.3977 c 5.5297,-11.3949 7.9507,-18.3044 6.8124,-19.4426 -0.6532,-0.6533 -11.6331,3.947 -22.8202,9.5609 l -9.6718,4.8536 -4.8982,-5.016 c -2.694,-2.7587 -8.8984,-8.6854 -13.7877,-13.1704 l -8.8896,-8.1544 0.7141,7.4856 c 0.3927,4.1171 1.4923,11.8344 2.4435,17.1496 0.9511,5.3152 1.4094,10.529 1.0183,11.5862 -0.7409,2.0028 -5.8052,5.4509 -16.984,11.5637 -3.623,1.9811 -7.673,4.5207 -9,5.6434 -2.2294,1.8863 -2.2839,2.1417 -0.7181,3.3618 0.932,0.7262 8.582,2.5592 17,4.0733 8.418,1.514 15.5785,3.0576 15.9123,3.4302 0.3338,0.3726 1.1408,5.8524 1.7934,12.1774 1.037,10.0518 2.1277,16.3075 3.6177,20.75 0.7592,2.2638 2.2511,1.3141 5.3972,-3.4356 z m 661.83209,102.9356 c -0.3871,-16.7591 -0.8771,-22.2221 -2.5479,-28.4041 -3.8371,-14.198 -10.455,-24.7027 -21.1244,-33.531 -14.139,-11.6993 -30.7046,-17.0966 -49.075,-15.9896 -18.5548,1.1181 -30.0453,6.7178 -45.5,22.1739 -14.5858,14.587 -25.68549,31.6069 -32.93489,50.5008 -2.0047,5.225 -4.5511,11.4741 -5.6585,13.8869 l -2.0136,4.3869 -5.6965,-0.6059 c -55.3066,-5.8824 -57.3498,-6.2173 -59.2176,-9.7073 -1.6005,-2.9904 -1.1329,-10.6716 1.5825,-26.0008 9.6732,-54.6069 32.456,-112.4993 60.1952,-152.9598 34.60539,-50.4754 76.40229,-81.7733 122.48559,-91.7179 11.7877,-2.5438 43.7669,-2.5264 55.7578,0.03 40.1632,8.5636 72.7984,30.6774 95.5745,64.7619 17.6225,26.3721 23.879,49.8691 23.8111,89.4257 -0.034,19.5483 -0.2189,21.6671 -2.6819,30.6511 -13.8142,50.3891 -49.4846,88.8141 -92.6871,99.8446 -7.4709,1.9075 -25.6888,3.9783 -35.1533,3.9957 l -4.6366,0.01 -0.4794,-20.75 z m 39.1216,-102.5 c 0.6209,-2.3375 1.5994,-7.3585 2.1744,-11.1578 2.1812,-14.4117 2.8957,-16.5093 6.2073,-18.2218 1.6921,-0.875 9.3536,-2.8669 17.0255,-4.4265 7.6719,-1.5595 14.2291,-3.1157 14.5715,-3.4581 0.9,-0.9 -2.9184,-3.5965 -15.1605,-10.7061 -16.4354,-9.5449 -15.1179,-7.7244 -13.2425,-18.2988 2.0221,-11.4016 3.1582,-27.4809 1.9418,-27.4809 -0.5034,0 -6.7101,5.8078 -13.7927,12.9061 l -12.8774,12.9061 -13.9767,-6.9061 c -14.312,-7.0717 -17.7396,-8.1009 -17.7396,-5.3266 0,2.2015 4.535,13.4177 9.2176,22.7975 l 3.9324,7.8769 -12.825,13.0593 c -9.5615,9.7361 -12.3798,13.1578 -11.0754,13.4463 0.9622,0.2129 8.8946,-0.3209 17.6274,-1.1862 8.7329,-0.8653 16.6043,-1.5733 17.4921,-1.5733 1.0548,0 3.5539,3.8677 7.2116,11.1611 6.3595,12.6803 10.0541,18.8389 11.3019,18.8389 0.4716,0 1.3655,-1.9125 1.9863,-4.25 z m -420.03769,102.9346 c -0.544,-1.0164 -2.3151,-9.0074 -3.936,-17.7578 -7.3693,-39.7852 -18.6247,-72.624 -50.2859,-146.7139 -29.3765,-68.7437 -36.8504,-90.0012 -42.793,-121.71286 -1.8572,-9.91038 -2.2547,-15.56977 -2.2826,-32.5 -0.035,-21.35024 0.6503,-27.48174 5.0465,-45.14255 3.6034,-14.47628 7.8287,-25.83994 15.3776,-41.35745 15.5924,-32.05179 33.0351,-53.0866 67.7558,-81.70944 39.6895,-32.71899 55.9711,-46.58407 66.0954,-56.28559 l 11.183,-10.71598 10.254,9.75675 c 9.7433,9.27085 24.833,22.08593 61.7646,52.45426 44.0296,36.20489 66.2998,64.52931 81.7384,103.95937 23.20029,59.25297 16.7427,109.63269 -26.7301,208.54059 -23.5455,53.5699 -33.5299,78.1138 -41.4268,101.8357 -6.0825,18.2715 -9.9681,33.8062 -14.6393,58.5285 -2.1163,11.2003 -4.0443,20.5606 -4.2844,20.8008 -0.7378,0.7378 -50.4573,-1.1206 -51.2524,-1.9156 -0.4103,-0.4103 -1.0978,-27.4092 -1.5279,-59.9977 -1.6781,-127.1572 -2.9915,-198.9028 -3.9131,-213.75166 -0.5291,-8.525 -1.8677,-35.525 -2.9746,-60 -2.826,-62.48566 -4.3069,-83 -5.9916,-83 -2.4913,0 -4.8629,30.04965 -8.4841,107.5 -2.9254,62.56656 -4.0236,107.70796 -6.3667,261.70056 -0.3992,26.2353 -0.9356,47.9002 -1.1919,48.1441 -0.2564,0.244 -11.6441,0.611 -25.3061,0.8157 -23.3474,0.3497 -24.8993,0.261 -25.8288,-1.4758 z"
                 style="fill:#ff0000;fill-opacity:1;stroke:#000000;stroke-width:6;stroke-dasharray:none;stroke-opacity:1"
                 id="path3060" /></g></g></g></g><g
         id="g12099"
         transform="translate(-4.4376137)"><text
           xml:space="preserve"
           style="font-style:italic;font-variant:normal;font-weight:bold;font-stretch:normal;font-size:24.1394px;font-family:'Franklin Gothic Medium';-inkscape-font-specification:'Franklin Gothic Medium,  Bold Italic';text-align:center;letter-spacing:1.83669px;text-anchor:middle;fill:url(#linearGradient5012);fill-opacity:1;stroke:#000000;stroke-width:3.14861;stroke-dasharray:none;stroke-opacity:1;paint-order:stroke markers fill"
           id="text3925"
           transform="matrix(0.42171924,0.89160699,-0.92210231,0.42171925,41.71037,-72.015247)"><textPath
             xlink:href="#path3143"
             startOffset="50%"
             id="textPath3977"
             style="font-style:italic;font-variant:normal;font-weight:bold;font-stretch:normal;font-size:24.1394px;font-family:'Franklin Gothic Medium';-inkscape-font-specification:'Franklin Gothic Medium,  Bold Italic';fill:url(#linearGradient5012);fill-opacity:1;stroke-width:3.14861">BIG ADVENTURE SCOUT GROUP CORK - BIG ADVENTURE SCOUT GROUP CORK -</textPath></text></g></g></g></svg>
